<svg width="510" height="510" xmlns="http://www.w3.org/2000/svg">

 <g>
  <title>background</title>
  <rect fill="none" id="canvas_background" height="402" width="582" y="-1" x="-1"/>
 </g>
 <g>
  <title>Layer 1</title>
  <path fill="#ffffff" id="svg_2" d="m293.25,0c0,0 15.3,63.75 15.3,114.75c0,48.45 -33.149,89.25 -81.6,89.25s-86.7,-40.8 -86.7,-89.25l0,-7.65c-48.45,58.65 -76.5,132.6 -76.5,211.65c0,104.55 86.7,191.25 191.25,191.25s191.25,-86.7 191.25,-191.25c0,-130.05 -58.65,-244.8 -153,-318.75zm-38.25,433.5c-43.35,0 -76.5,-33.15 -76.5,-73.95c0,-38.25 25.5,-66.3 66.3,-73.95c43.351,-7.649 86.7,-28.05 109.65,-61.2c10.2,30.6 15.3,63.75 15.3,96.9c0,61.2 -51,112.2 -114.75,112.2z"/>
 </g>
</svg>