<?xml version="1.0" encoding="UTF-8"?>
<svg width="20px" height="18px" viewBox="0 0 20 18" version="1.1" xmlns="http://www.w3.org/2000/svg" xmlns:xlink="http://www.w3.org/1999/xlink">
    <!-- Generator: sketchtool 57.1 (101010) - https://sketch.com -->
    <title>EAD959C0-953A-4816-B753-961194A1D0C1</title>
    <desc>Created with sketchtool.</desc>
    <g id="Desktop-&amp;-Mobile" stroke="none" stroke-width="1" fill="none" fill-rule="evenodd">
        <g id="Icons-Kit" transform="translate(-135.000000, -179.000000)" fill="#FFFFFF">
            <g id="movie" transform="translate(135.000000, 178.000000)">
                <path d="M18,1 C19.1045695,1 20,1.8954305 20,3 L20,17 C20,18.1045695 19.1045695,19 18,19 L2,19 C0.8954305,19 1.3527075e-16,18.1045695 0,17 L0,3 C-1.3527075e-16,1.8954305 0.8954305,1 2,1 L18,1 Z M17.5,15 L16.5,15 C16.2545401,15 16.0503916,15.1768752 16.0080557,15.4101244 L16,15.5 L16,16.5 C16,16.7454599 16.1768752,16.9496084 16.4101244,16.9919443 L16.5,17 L17.5,17 C17.7454599,17 17.9496084,16.8231248 17.9919443,16.5898756 L18,16.5 L18,15.5 C18,15.2238576 17.7761424,15 17.5,15 Z M3.5,15 L2.5,15 C2.25454011,15 2.05039163,15.1768752 2.00805567,15.4101244 L2,15.5 L2,16.5 C2,16.7454599 2.17687516,16.9496084 2.41012437,16.9919443 L2.5,17 L3.5,17 C3.74545989,17 3.94960837,16.8231248 3.99194433,16.5898756 L4,16.5 L4,15.5 C4,15.2238576 3.77614237,15 3.5,15 Z M17.5,11 L16.5,11 C16.2545401,11 16.0503916,11.1768752 16.0080557,11.4101244 L16,11.5 L16,12.5 C16,12.7454599 16.1768752,12.9496084 16.4101244,12.9919443 L16.5,13 L17.5,13 C17.7454599,13 17.9496084,12.8231248 17.9919443,12.5898756 L18,12.5 L18,11.5 C18,11.2238576 17.7761424,11 17.5,11 Z M3.5,11 L2.5,11 C2.25454011,11 2.05039163,11.1768752 2.00805567,11.4101244 L2,11.5 L2,12.5 C2,12.7454599 2.17687516,12.9496084 2.41012437,12.9919443 L2.5,13 L3.5,13 C3.74545989,13 3.94960837,12.8231248 3.99194433,12.5898756 L4,12.5 L4,11.5 C4,11.2238576 3.77614237,11 3.5,11 Z M17.5,7 L16.5,7 C16.2545401,7 16.0503916,7.17687516 16.0080557,7.41012437 L16,7.5 L16,8.5 C16,8.74545989 16.1768752,8.94960837 16.4101244,8.99194433 L16.5,9 L17.5,9 C17.7454599,9 17.9496084,8.82312484 17.9919443,8.58987563 L18,8.5 L18,7.5 C18,7.22385763 17.7761424,7 17.5,7 Z M3.5,7 L2.5,7 C2.25454011,7 2.05039163,7.17687516 2.00805567,7.41012437 L2,7.5 L2,8.5 C2,8.74545989 2.17687516,8.94960837 2.41012437,8.99194433 L2.5,9 L3.5,9 C3.74545989,9 3.94960837,8.82312484 3.99194433,8.58987563 L4,8.5 L4,7.5 C4,7.22385763 3.77614237,7 3.5,7 Z M17.5,3 L16.5,3 C16.2545401,3 16.0503916,3.17687516 16.0080557,3.41012437 L16,3.5 L16,4.5 C16,4.74545989 16.1768752,4.94960837 16.4101244,4.99194433 L16.5,5 L17.5,5 C17.7454599,5 17.9496084,4.82312484 17.9919443,4.58987563 L18,4.5 L18,3.5 C18,3.22385763 17.7761424,3 17.5,3 Z M3.5,3 L2.5,3 C2.22385763,3 2,3.22385763 2,3.5 L2,3.5 L2,4.5 C2,4.77614237 2.22385763,5 2.5,5 L2.5,5 L3.5,5 C3.77614237,5 4,4.77614237 4,4.5 L4,4.5 L4,3.5 C4,3.22385763 3.77614237,3 3.5,3 L3.5,3 Z" id="Combined-Shape"></path>
            </g>
        </g>
    </g>
</svg>