<?xml version="1.0" encoding="utf-8"?>

<!DOCTYPE svg PUBLIC "-//W3C//DTD SVG 1.1//EN" "http://www.w3.org/Graphics/SVG/1.1/DTD/svg11.dtd">
<!-- Uploaded to: SVG Repo, www.svgrepo.com, Generator: SVG Repo Mixer Tools -->
<svg version="1.1" id="PLAY" xmlns="http://www.w3.org/2000/svg" xmlns:xlink="http://www.w3.org/1999/xlink" 
	 width="800px" height="800px" viewBox="0 0 1800 1800" enable-background="new 0 0 1800 1800" xml:space="preserve">
<g>
	<path fill="#013357" d="M1407.629,872.813L693.082,460.273c-9.711-5.604-21.674-5.604-31.385,0
		c-9.712,5.609-15.693,15.968-15.693,27.182v631.583c0,17.33,14.051,31.385,31.385,31.385s31.385-14.055,31.385-31.385V541.814
		l620.392,358.18l-555.918,320.967c-15.014,8.669-20.154,27.864-11.489,42.874c5.815,10.07,16.363,15.692,27.213,15.692
		c5.324,0,10.719-1.357,15.662-4.203l602.995-348.148c9.711-5.609,15.692-15.969,15.692-27.182
		C1423.321,888.781,1417.34,878.421,1407.629,872.813z"/>
	<path fill="#013357" d="M899.993,5.324c-493.322,0-894.67,401.352-894.67,894.679c0,493.322,401.348,894.674,894.67,894.674
		c493.331,0,894.683-401.352,894.683-894.674C1794.676,406.676,1393.324,5.324,899.993,5.324z M899.993,1731.906
		c-458.71,0-831.899-373.188-831.899-831.903S441.283,68.095,899.993,68.095c458.719,0,831.912,373.193,831.912,831.908
		S1358.712,1731.906,899.993,1731.906z"/>
</g>
</svg>