<?xml version="1.0" encoding="UTF-8"?>
<svg width="20px" height="19px" viewBox="0 0 20 19" version="1.1" xmlns="http://www.w3.org/2000/svg" xmlns:xlink="http://www.w3.org/1999/xlink">
    <!-- Generator: sketchtool 57.1 (101010) - https://sketch.com -->
    <title>420AAD41-596F-4529-8212-AB4BA68711FB</title>
    <desc>Created with sketchtool.</desc>
    <g id="Desktop-&amp;-Mobile" stroke="none" stroke-width="1" fill="none" fill-rule="evenodd">
        <g id="Icons-Kit" transform="translate(-91.000000, -179.000000)" fill="#FFFFFF">
            <g id="popular" transform="translate(91.000000, 178.000000)">
                <path d="M6,15.2071068 L6,20 L6,20 L0,20 L5.14644661,14.8535534 C5.34170876,14.6582912 5.65829124,14.6582912 5.85355339,14.8535534 C5.94732158,14.9473216 6,15.0744985 6,15.2071068 Z" id="Triangle" transform="translate(3.000000, 17.000000) rotate(-180.000000) translate(-3.000000, -17.000000) "></path>
                <path d="M18,1 C19.1045695,1 20,1.8954305 20,3 L20,13 C20,14.1045695 19.1045695,15 18,15 L0,15 L0,3 C-1.3527075e-16,1.8954305 0.8954305,1 2,1 L18,1 Z M10.1106414,3.59070385 C9.98682801,3.52959827 9.83692155,3.58043302 9.77581598,3.70424644 L9.77581598,3.70424644 L8.45491503,6.3806841 L5.50129071,6.80987084 C5.44688145,6.81777696 5.39659585,6.84339876 5.35821869,6.88276967 C5.26184339,6.98164056 5.26386647,7.13991888 5.36273736,7.23629418 L5.36273736,7.23629418 L7.5,9.31961036 L6.99546073,12.2613 C6.98616652,12.3154894 6.99499519,12.3712314 7.02057996,12.4198966 C7.08483016,12.5421077 7.23598695,12.5890943 7.35819809,12.5248441 L7.35819809,12.5248441 L9.76732944,11.2582888 C9.91299145,11.1817098 10.0870086,11.1817098 10.2326706,11.2582888 L10.2326706,11.2582888 L12.6418019,12.5248441 C12.690467,12.5504289 12.746209,12.5592576 12.8003985,12.5499634 C12.9364826,12.5266231 13.0278795,12.3973841 13.0045393,12.2613 L13.0045393,12.2613 L12.5,9.31961036 L14.6372626,7.23629418 C14.6766335,7.19791703 14.7022553,7.14763143 14.7101615,7.09322217 C14.7300159,6.95658595 14.6353455,6.82972524 14.4987093,6.80987084 L14.4987093,6.80987084 L11.545085,6.3806841 L10.224184,3.70424644 C10.1998515,3.65494329 10.1599446,3.61503641 10.1106414,3.59070385 Z" id="Combined-Shape"></path>
            </g>
        </g>
    </g>
</svg>