<?xml version="1.0" encoding="UTF-8"?>
<svg width="20px" height="20px" viewBox="0 0 20 20" version="1.1" xmlns="http://www.w3.org/2000/svg" xmlns:xlink="http://www.w3.org/1999/xlink">
    <!-- Generator: sketchtool 57.1 (101010) - https://sketch.com -->
    <title>B5996148-CC5D-48D4-A869-C4AE10491C04</title>
    <desc>Created with sketchtool.</desc>
    <g id="Desktop-&amp;-Mobile" stroke="none" stroke-width="1" fill="none" fill-rule="evenodd">
        <g id="Icons-Kit" transform="translate(-179.000000, -178.000000)" fill="#FFFFFF" fill-rule="nonzero">
            <g id="tv" transform="translate(179.000000, 178.000000)">
                <path d="M15.438,0 L9.094,4.281 L5.688,1.125 L4.313,2.564 L6.78,4.844 L2,4.844 C0.898,4.844 0,5.742 0,6.844 L0,17.844 C0,18.946 0.898,19.844 2,19.844 L18,19.844 C19.102,19.844 20,18.946 20,17.844 L20,6.844 C20,5.742 19.102,4.844 18,4.844 L11.844,4.844 L16.563,1.688 L15.438,0 Z M6.25,6.844 C6.77,6.832 7.352,6.844 8,6.844 C13.3,6.844 14,6.844 14,12.344 C14,17.844 13.2,17.844 8,17.844 C2.8,17.844 2,17.742 2,12.344 C2,7.617 2.613,6.938 6.25,6.844 Z M17,10.844 C17.602,10.844 18,11.242 18,11.844 C18,12.446 17.602,12.844 17,12.844 C16.398,12.844 16,12.446 16,11.844 C16,11.242 16.398,10.844 17,10.844 Z M17,14.844 C17.602,14.844 18,15.242 18,15.844 C18,16.446 17.602,16.844 17,16.844 C16.398,16.844 16,16.446 16,15.844 C16,15.242 16.398,14.844 17,14.844 Z" id="surface1"></path>
            </g>
        </g>
    </g>
</svg>